<?xml version="1.0" encoding="utf-8"?>
<!-- Generator: Adobe Illustrator 15.0.0, SVG Export Plug-In  -->
<!DOCTYPE svg PUBLIC "-//W3C//DTD SVG 1.1//EN" "http://www.w3.org/Graphics/SVG/1.1/DTD/svg11.dtd" [
	<!ENTITY ns_flows "http://ns.adobe.com/Flows/1.0/">
]>
<svg version="1.1"
	 xmlns="http://www.w3.org/2000/svg" xmlns:xlink="http://www.w3.org/1999/xlink" xmlns:a="http://ns.adobe.com/AdobeSVGViewerExtensions/3.0/"
	 x="0px" y="0px" width="20px" height="20px" viewBox="509 501 20 20" overflow="visible" enable-background="new 509 501 20 20"
	 xml:space="preserve">
<defs>
</defs>
<radialGradient id="SVGID_1_" cx="511.5" cy="512" r="511.7501" gradientUnits="userSpaceOnUse">
	<stop  offset="0" style="stop-color:#FFFFFF"/>
	<stop  offset="1" style="stop-color:#000000"/>
</radialGradient>
<rect display="none" fill="url(#SVGID_1_)" width="1023" height="1024"/>
<rect x="506.851" y="498.977" display="none" fill="#CCCCCC" width="24" height="24"/>
<g>
	<g>
		<g>
			<path fill="#FFFFFF" d="M519.302,515.33c-0.001,0-0.001,0-0.002,0l-0.094,0.004c-0.292,0.008-0.522,0.252-0.516,0.547
				l0.099,3.508c0.004,0.145,0.063,0.275,0.17,0.375c0.101,0.092,0.229,0.143,0.363,0.143l0.197-0.008
				c0.143-0.006,0.273-0.064,0.374-0.172c0.097-0.107,0.146-0.246,0.139-0.389l-0.182-3.504
				C519.837,515.551,519.604,515.33,519.302,515.33z M519.322,519.662L519.322,519.662v0.004V519.662z"/>
			<path fill="#FFFFFF" d="M510.245,511.485l3.51-0.152l0.114-0.001l0.017-0.016c0.239-0.06,0.412-0.29,0.396-0.598l-0.004-0.086
				c-0.011-0.288-0.244-0.514-0.546-0.514h-0.001l-3.503,0.096c-0.141,0-0.278,0.062-0.376,0.167
				c-0.098,0.104-0.148,0.238-0.146,0.382l0.009,0.215C509.729,511.263,509.962,511.485,510.245,511.485z M510.245,511.239
				L510.245,511.239v0.006V511.239z M509.946,510.757L509.946,510.757L509.946,510.757L509.946,510.757z"/>
			<path fill="#FFFFFF" d="M510.983,506.929l3.114,1.62c0.075,0.039,0.158,0.059,0.243,0.059l0.025-0.001
				c0.19-0.008,0.355-0.113,0.447-0.282l0.048-0.089c0.137-0.26,0.043-0.575-0.213-0.717l-3.067-1.703
				c-0.121-0.067-0.269-0.085-0.406-0.046c-0.135,0.039-0.249,0.128-0.321,0.257l-0.098,0.184c-0.065,0.127-0.077,0.271-0.036,0.405
				C510.762,506.75,510.855,506.862,510.983,506.929z M514.34,508.363L514.34,508.363v0.004V508.363z"/>
			<path fill="#FFFFFF" d="M522.411,514.734c-0.152-0.238-0.493-0.312-0.732-0.162l-0.089,0.057
				c-0.247,0.152-0.325,0.479-0.172,0.729l1.831,2.988c0.073,0.125,0.195,0.213,0.331,0.242c0.043,0.012,0.086,0.016,0.128,0.016
				h0.019c0.092-0.004,0.182-0.029,0.257-0.076l0.173-0.109c0.116-0.076,0.2-0.197,0.23-0.334c0.029-0.141,0.004-0.283-0.073-0.402
				L522.411,514.734z M523.708,518.363L523.708,518.363L523.708,518.363L523.708,518.363z"/>
			<path fill="#FFFFFF" d="M527.186,514.119l-3.114-1.62c-0.253-0.13-0.582-0.026-0.716,0.223l-0.054,0.099
				c-0.136,0.257-0.038,0.58,0.215,0.718l3.078,1.682c0.078,0.043,0.166,0.066,0.255,0.066l0.025-0.002
				c0.041-0.002,0.085-0.006,0.126-0.02c0.136-0.039,0.252-0.133,0.317-0.254l0.095-0.178
				C527.547,514.574,527.444,514.252,527.186,514.119z M526.85,515.043L526.85,515.043v0.004V515.043z"/>
			<path fill="#FFFFFF" d="M523.123,507.934l0.056,0.09c0.099,0.156,0.268,0.25,0.452,0.25l0.024-0.001
				c0.092-0.004,0.18-0.032,0.253-0.078l2.995-1.827c0.25-0.153,0.331-0.482,0.15-0.776l-0.082-0.131
				c-0.154-0.237-0.495-0.312-0.735-0.158l-2.949,1.899C523.042,507.36,522.968,507.688,523.123,507.934z M523.631,508.03
				L523.631,508.03v0.003V508.03z"/>
			<path fill="#FFFFFF" d="M528.447,510.094c-0.006-0.14-0.069-0.275-0.174-0.37c-0.098-0.089-0.224-0.138-0.383-0.138
				c0,0,0,0-0.002,0l-1.215,0.064l-0.08-0.006l-2.209,0.115c-0.289,0.013-0.518,0.26-0.508,0.551l0.004,0.099
				c0.011,0.289,0.244,0.515,0.534,0.515l3.531-0.091c0.292-0.014,0.515-0.252,0.508-0.544L528.447,510.094z M526.622,509.887
				L526.622,509.887L526.622,509.887L526.622,509.887z M524.415,510.68L524.415,510.68v0.003V510.68z"/>
			<path fill="#FFFFFF" d="M515.759,506.321c0.1,0.153,0.267,0.244,0.449,0.244l0.023-0.001c0.089-0.004,0.178-0.031,0.259-0.081
				l0.094-0.059c0.246-0.154,0.323-0.481,0.171-0.729l-1.833-2.993c-0.148-0.242-0.486-0.323-0.733-0.177l-0.165,0.105
				c-0.12,0.077-0.203,0.195-0.233,0.335c-0.029,0.137-0.003,0.282,0.071,0.401L515.759,506.321z M516.208,506.322L516.208,506.322
				v0.003V506.322z"/>
			<path fill="#FFFFFF" d="M521.633,506.376l0.025-0.001c0.187-0.008,0.357-0.116,0.444-0.278l1.67-3.088
				c0.067-0.126,0.082-0.273,0.041-0.406c-0.042-0.137-0.133-0.249-0.26-0.317l-0.154-0.083c-0.125-0.067-0.278-0.079-0.408-0.039
				c-0.136,0.042-0.251,0.138-0.315,0.263l-1.623,3.112c-0.134,0.259-0.033,0.581,0.223,0.716l0.108,0.057
				C521.46,506.354,521.546,506.376,521.633,506.376z M521.633,506.132L521.633,506.132v0.003V506.132z"/>
			<path fill="#FFFFFF" d="M518.202,503.021l0.106,2.202c0.012,0.286,0.246,0.509,0.53,0.509l0.129-0.004
				c0.292-0.013,0.516-0.252,0.509-0.545l-0.083-3.508c-0.005-0.287-0.244-0.52-0.581-0.52h-0.001
				c-0.147,0.002-0.369,0.005-0.528,0.179c-0.096,0.104-0.146,0.243-0.141,0.384l0.062,1.248L518.202,503.021z M518.839,505.486
				L518.839,505.486v0.004V505.486z"/>
		</g>
		<polygon fill="#FFFFFF" points="509.247,515.717 512.935,517.07 514.205,520.797 517.441,512.692 		"/>
	</g>
</g>
</svg>
