<?xml version="1.0" encoding="utf-8"?>
<!-- Generator: Adobe Illustrator 15.0.0, SVG Export Plug-In  -->
<!DOCTYPE svg PUBLIC "-//W3C//DTD SVG 1.1//EN" "http://www.w3.org/Graphics/SVG/1.1/DTD/svg11.dtd" [
	<!ENTITY ns_flows "http://ns.adobe.com/Flows/1.0/">
]>
<svg version="1.1"
	 xmlns="http://www.w3.org/2000/svg" xmlns:xlink="http://www.w3.org/1999/xlink" xmlns:a="http://ns.adobe.com/AdobeSVGViewerExtensions/3.0/"
	 x="0px" y="0px" width="22px" height="20px" viewBox="473 501 22 20" overflow="visible" enable-background="new 473 501 22 20"
	 xml:space="preserve">
<defs>
</defs>
<radialGradient id="SVGID_1_" cx="511.5" cy="512" r="511.7501" gradientUnits="userSpaceOnUse">
	<stop  offset="0" style="stop-color:#FFFFFF"/>
	<stop  offset="1" style="stop-color:#000000"/>
</radialGradient>
<rect display="none" fill="url(#SVGID_1_)" width="1023" height="1024"/>
<rect x="471.725" y="498.977" display="none" fill="#CCCCCC" width="24" height="24"/>
<g>
	<g>
		<path fill="#FFFFFF" d="M479.708,513.769c0.896-0.551,1.44-1.375,1.986-2.199c0.218-0.328,0.444-0.668,0.693-0.979
			c0.957-1.229,1.622-1.594,2.242-1.387c0.319,0.123,0.739,0.396,1.146,0.66c0.812,0.527,1.652,1.072,2.482,1.072
			c0.155,0,0.309-0.021,0.454-0.06c0.486-0.134,0.875-0.48,1.156-1.04l0.208-0.453c0.417-0.913,0.892-1.948,1.54-2.601
			c0.119-0.119,0.184-0.277,0.184-0.446c-0.001-0.167-0.066-0.324-0.186-0.44c-0.238-0.237-0.651-0.234-0.888,0.002
			c-0.808,0.812-1.33,1.955-1.791,2.961l-0.199,0.431c-0.107,0.217-0.224,0.34-0.355,0.375c-0.398,0.11-1.266-0.429-1.923-0.854
			c-0.483-0.313-0.939-0.608-1.405-0.787c-0.254-0.085-0.511-0.128-0.764-0.128c-1.397,0-2.405,1.297-2.888,1.918
			c-0.277,0.346-0.517,0.706-0.772,1.09c-0.419,0.633-0.853,1.288-1.447,1.701l-0.108,0.075v0.998l0.046,0.383L479.708,513.769z"/>
		<polygon fill="#FFFFFF" points="494.292,515.77 477.551,515.77 477.551,501.866 475.526,501.866 475.526,515.77 473.011,515.77 
			473.011,517.289 475.526,517.289 475.526,520.088 477.551,520.088 477.551,517.289 494.292,517.289 		"/>
	</g>
</g>
</svg>
