<?xml version="1.0" encoding="utf-8"?>
<!-- Generator: Adobe Illustrator 15.0.0, SVG Export Plug-In  -->
<!DOCTYPE svg PUBLIC "-//W3C//DTD SVG 1.1//EN" "http://www.w3.org/Graphics/SVG/1.1/DTD/svg11.dtd" [
	<!ENTITY ns_flows "http://ns.adobe.com/Flows/1.0/">
]>
<svg version="1.1"
	 xmlns="http://www.w3.org/2000/svg" xmlns:xlink="http://www.w3.org/1999/xlink" xmlns:a="http://ns.adobe.com/AdobeSVGViewerExtensions/3.0/"
	 x="0px" y="0px" width="13px" height="18px" viewBox="-0.554 -0.167 13 18"
	 overflow="visible" enable-background="new -0.554 -0.167 13 18" xml:space="preserve">
<defs>
</defs>
<g>
	<path fill="#FFFFFF" d="M8.149,5.29l3.941-1.797L0,0l5.505,11.333l1.141-4.411c0.398,0.375,0.785,0.76,1.134,1.161
		c1.051,1.22,1.9,2.644,1.958,4.101c0.026,0.742-0.133,1.396-0.528,2.15c-0.337,0.656-0.821,1.299-1.434,1.664
		c-1.215,0.799-3.03,0.459-4.398-0.338l-0.032-0.02c-0.205-0.119-0.47-0.061-0.605,0.137c-0.142,0.209-0.089,0.494,0.119,0.635
		c0.802,0.549,1.646,0.924,2.607,1.113c0.945,0.188,2.025,0.102,2.945-0.387c0.934-0.482,1.602-1.25,2.124-2.105
		c0.486-0.758,0.881-1.826,0.897-2.842c0.058-2.098-0.93-3.915-2.021-5.407C9.012,6.256,8.588,5.765,8.149,5.29z"/>
</g>
</svg>
