<svg width="1260" height="2240" xmlns="http://www.w3.org/2000/svg">
 <!-- Created with Method Draw - http://github.com/duopixel/Method-Draw/ -->
 <g>
  <title>background</title>
  <rect fill="none" id="canvas_background" height="2242" width="1262" y="-1" x="-1"/>
  <g display="none" overflow="visible" y="0" x="0" height="100%" width="100%" id="canvasGrid">
   <rect fill="url(#gridpattern)" stroke-width="0" y="0" x="0" height="100%" width="100%"/>
  </g>
 </g>
 <g>
  <title>Layer 1</title>
  <rect transform="rotate(45 630,251.00000000000009) " id="svg_1" height="80" width="80" y="211" x="590" stroke-width="4" stroke="#ffffff" fill="none"/>
  <rect transform="rotate(45 629.9999999999999,308.2000122070313) " id="svg_2" height="80" width="80" y="268.2" x="590" stroke-width="4" stroke="#ffffff" fill="none"/>
  <rect transform="rotate(45 630,194.00000000000009) " id="svg_3" height="80" width="80" y="154" x="590" stroke-width="4" stroke="#ffffff" fill="none"/>
  <rect transform="rotate(45 728,250.99999999999991) " id="svg_6" height="60" width="60" y="221" x="698" stroke-width="4" stroke="#ffffff" fill="none"/>
  <rect transform="rotate(45 531,251.00000000000006) " id="svg_7" height="60" width="60" y="221" x="501" stroke-width="4" stroke="#ffffff" fill="none"/>
  <line stroke="#ffffff" stroke-linecap="null" stroke-linejoin="null" id="svg_8" y2="251" x2="1072" y1="251" x1="772" stroke-width="4" fill="none"/>
  <rect transform="rotate(45 1100.9999999999998,250.00000000000003) " id="svg_9" height="40" width="40" y="230" x="1081" stroke-width="4" stroke="#ffffff" fill="none"/>
  <line stroke="#ffffff" stroke-linecap="null" stroke-linejoin="null" id="svg_10" y2="251" x2="489" y1="251" x1="189" stroke-width="4" fill="none"/>
  <rect transform="rotate(45 159.99999999999991,250.00000000000003) " points="null-33,87 -24,90 -13,95 -5,98 3,100 9,103 13,107 15,108 17,108 19,108 17,107 17,106 17,103 17,102 17,102 17,99 19,98 19,98 19,96 20,96 23,96 24,95 25,95 27,94 29,94 31,94 31,94 32,94 33,94 35,94 36,94 37,94 39,94 39,94 43,94 45,94 47,95 51,95 55,98 60,100 67,103 76,107 88,114 103,120 124,131 147,148 167,170 189,195 211,226 231,255 251,287 267,316 283,343 299,364 307,378 313,390 317,398 321,406 325,410 329,414 335,419 337,422 343,426 347,427 351,431 355,432 359,434 361,436 363,438 364,439 367,439 367,442 368,444 371,447 375,454 383,463 392,475 407,494 427,514 447,536 463,554 475,570 483,580 488,588 491,595 491,600 491,602 491,606 491,608 488,611 487,616 487,620 485,626 485,627 485,631 485,635 485,636 485,638 484,639 483,639 483,638 483,635 483,632 481,630 481,627 481,623 481,619 481,611 483,604 483,598 485,590 487,582 489,574 491,563 492,554 493,546 493,538 493,530 492,523 489,514 485,508 480,502 475,496 467,491 463,487 457,483 452,480 449,479 447,478 444,476 443,475 440,475 439,474 437,474 435,474 433,472 433,471 432,471 431,471 431,471 428,471 427,471 423,471 419,471 417,471 413,471 408,471 403,471 396,470 388,468 379,467 367,463 355,462 340,456 323,451 303,444 283,438 259,427 239,419 219,411 203,404 193,399 183,396 172,394 165,390 159,387 152,384 145,382 139,378 123,375 121,375 119,375 117,375 115,375 115,375 111,376 107,378 103,378 99,378 95,378 91,378 87,378 83,378 79,378 76,378 75,378 73,378 71,378 67,379 65,379 63,379 56,379 51,379 43,379 37,379 35,378 32,376 29,375 27,374 24,371 23,368 19,366 15,360 11,354 7,348 3,342 -1,335 -5,327 -9,320 -13,315 -16,308 -19,303 -21,299 -23,296 -25,292 -28,290 -29,286 -32,283 -33,279 -33,275 -36,272 -37,270 -37,270 -37,268 -37,267 -37,266 -37,263 -37,262 -37,259 -37,258 -37,258 -37,260 -37,263 -36,270 -33,275 -33,282 -29,290 -29,298 -28,306 -25,314 -25,320 -25,327 -25,335 -25,343 -25,352 -25,362 -23,371 -21,379 -21,387 -17,395 -16,403 -13,408 -13,411 -12,414 -11,415 -11,416 -11,418 -11,418 -11,418 -11,416 -9,414 -9,414 -8,411 -5,410 -5,407 -4,407 -3,406 -1,406 -1,404 -1,403 -1,402 -1,402 -1,400 -1,399 -1,399 -3,399 -5,399 -5,399 -7,400 -8,402 -9,403 -9,404 -9,406 -9,406 -11,406 " id="svg_11" height="40" width="40" y="230" x="140" stroke-width="4" stroke="#ffffff" fill="none"/>
  <rect transform="rotate(45 630.0000000000002,2001.0000000000002) " id="svg_15" height="80" width="80" y="1961" x="590" stroke-width="4" stroke="#ffffff" fill="none"/>
  <rect transform="rotate(45 629.9999999999994,2058.1999511718755) " id="svg_16" height="80" width="80" y="2018.2" x="590" stroke-width="4" stroke="#ffffff" fill="none"/>
  <rect transform="rotate(45 630.0000000000002,1944) " id="svg_17" height="80" width="80" y="1904" x="590" stroke-width="4" stroke="#ffffff" fill="none"/>
  <rect transform="rotate(45 728.0000000000007,2000.9999999999998) " id="svg_18" height="60" width="60" y="1971" x="698" stroke-width="4" stroke="#ffffff" fill="none"/>
  <rect transform="rotate(45 531.0000000000002,2001.0000000000002) " id="svg_19" height="60" width="60" y="1971" x="501" stroke-width="4" stroke="#ffffff" fill="none"/>
  <line stroke="#ffffff" stroke-linecap="null" stroke-linejoin="null" id="svg_20" y2="2001" x2="1072" y1="2001" x1="772" stroke-width="4" fill="none"/>
  <rect transform="rotate(45 1100.9999999999993,2000.0000000000002) " id="svg_21" height="40" width="40" y="1980" x="1081" stroke-width="4" stroke="#ffffff" fill="none"/>
  <line stroke="#ffffff" stroke-linecap="null" stroke-linejoin="null" id="svg_22" y2="2001" x2="489" y1="2001" x1="189" stroke-width="4" fill="none"/>
  <rect transform="rotate(45 160,1999.9999999999998) " points="null-33,87 -24,90 -13,95 -5,98 3,100 9,103 13,107 15,108 17,108 19,108 17,107 17,106 17,103 17,102 17,102 17,99 19,98 19,98 19,96 20,96 23,96 24,95 25,95 27,94 29,94 31,94 31,94 32,94 33,94 35,94 36,94 37,94 39,94 39,94 43,94 45,94 47,95 51,95 55,98 60,100 67,103 76,107 88,114 103,120 124,131 147,148 167,170 189,195 211,226 231,255 251,287 267,316 283,343 299,364 307,378 313,390 317,398 321,406 325,410 329,414 335,419 337,422 343,426 347,427 351,431 355,432 359,434 361,436 363,438 364,439 367,439 367,442 368,444 371,447 375,454 383,463 392,475 407,494 427,514 447,536 463,554 475,570 483,580 488,588 491,595 491,600 491,602 491,606 491,608 488,611 487,616 487,620 485,626 485,627 485,631 485,635 485,636 485,638 484,639 483,639 483,638 483,635 483,632 481,630 481,627 481,623 481,619 481,611 483,604 483,598 485,590 487,582 489,574 491,563 492,554 493,546 493,538 493,530 492,523 489,514 485,508 480,502 475,496 467,491 463,487 457,483 452,480 449,479 447,478 444,476 443,475 440,475 439,474 437,474 435,474 433,472 433,471 432,471 431,471 431,471 428,471 427,471 423,471 419,471 417,471 413,471 408,471 403,471 396,470 388,468 379,467 367,463 355,462 340,456 323,451 303,444 283,438 259,427 239,419 219,411 203,404 193,399 183,396 172,394 165,390 159,387 152,384 145,382 139,378 123,375 121,375 119,375 117,375 115,375 115,375 111,376 107,378 103,378 99,378 95,378 91,378 87,378 83,378 79,378 76,378 75,378 73,378 71,378 67,379 65,379 63,379 56,379 51,379 43,379 37,379 35,378 32,376 29,375 27,374 24,371 23,368 19,366 15,360 11,354 7,348 3,342 -1,335 -5,327 -9,320 -13,315 -16,308 -19,303 -21,299 -23,296 -25,292 -28,290 -29,286 -32,283 -33,279 -33,275 -36,272 -37,270 -37,270 -37,268 -37,267 -37,266 -37,263 -37,262 -37,259 -37,258 -37,258 -37,260 -37,263 -36,270 -33,275 -33,282 -29,290 -29,298 -28,306 -25,314 -25,320 -25,327 -25,335 -25,343 -25,352 -25,362 -23,371 -21,379 -21,387 -17,395 -16,403 -13,408 -13,411 -12,414 -11,415 -11,416 -11,418 -11,418 -11,418 -11,416 -9,414 -9,414 -8,411 -5,410 -5,407 -4,407 -3,406 -1,406 -1,404 -1,403 -1,402 -1,402 -1,400 -1,399 -1,399 -3,399 -5,399 -5,399 -7,400 -8,402 -9,403 -9,404 -9,406 -9,406 -11,406 " id="svg_23" height="40" width="40" y="1980" x="140" stroke-width="4" stroke="#ffffff" fill="none"/>
 </g>
</svg>