<?xml version="1.0" encoding="utf-8"?>
<!-- Generator: Adobe Illustrator 17.1.0, SVG Export Plug-In . SVG Version: 6.00 Build 0)  -->
<!DOCTYPE svg PUBLIC "-//W3C//DTD SVG 1.1//EN" "http://www.w3.org/Graphics/SVG/1.1/DTD/svg11.dtd">
<svg version="1.1" id="Capa_1" xmlns="http://www.w3.org/2000/svg" xmlns:xlink="http://www.w3.org/1999/xlink" x="0px" y="0px"
	 width="1000px" height="1000px" viewBox="0 0 1000 1000" enable-background="new 0 0 1000 1000" xml:space="preserve">
<path style="fill:#ff2222" d="M122.961,550.151C138.413,754.042,309.519,975,500.017,975c190.543,0,361.648-220.958,377.01-424.849
	c9.99-131.284-46.628-220.44-140.062-271.815c35.595-30.553,66.702-66.721,80.655-83.699c4.372-5.32,2.354-10.907-4.395-12.268
	c-39.749-8.012-166.492-31.186-228.327-14.604c-31.712,8.513-48.912,20.782-57.246,35.299c-1.297-31.134-6.178-74.02-23.199-112.543
	c-16.239-36.645-28.512-53.579-36.388-61.404c-4.884-4.853-15.573-4.934-22.096-2.728l-69.683,23.568
	c-6.522,2.206-6.88,6.636-1.195,10.52c22.261,15.207,72.626,58.1,82.958,140.188c-8.871-13.48-25.892-24.86-55.902-32.9
	c-61.836-16.582-188.578,6.592-228.327,14.604c-6.75,1.36-8.762,6.944-4.384,12.259c14.601,17.728,47.952,56.4,85.525,87.739
	C166.319,334.459,113.329,422.564,122.961,550.151z M213.195,463.436c8.82-23.672,21.091-44.972,37.081-62.975
	c52.137-2.688,130.693-9.903,175.845-28.983c22.75,26.819,52.97,48.349,68.732,58.656c5.762,3.769,15.124,3.402,20.542-0.847
	c12.676-9.941,35.233-29.218,54.729-54.181c50.706,18.053,132.671,24.034,180.598,25.979c15.59,17.805,27.198,38.771,35.93,62.039
	C770.259,468.073,758,482.695,758,500.68v39.867c0,22.011,17.963,39.863,39.956,39.863c0.537,0,0.97-0.289,1.465-0.289
	c-1.972,18.677-5.266,37.468-10.191,56.145c-7.302-9.499-18.294-16.012-31.191-16.012c-21.993,0-40.038,17.847-40.038,39.863v39.863
	c0,18.186,12.556,32.9,29.219,37.67c-11.242,19.686-24.112,38.12-38.128,55.567c-7.348-8.04-18.285-13.531-30.871-13.531
	c-21.993,0-40.22,15.792-40.22,35.299v35.271c0,3.426,1.535,6.563,2.567,9.696c-42.556,31.198-90.433,50.214-140.598,50.214
	c-37.538,0-73.773-10.641-107.59-29.047c4.256-6.316,7.621-13.531,7.621-21.704v-39.863c0-22.016-17.964-39.867-40.002-39.867
	c-22.035,0-39.998,17.851-39.998,39.867v6.674c-65-64.232-110.211-156.639-119.571-245.841C222.421,580.322,240,562.517,240,540.547
	V500.68C240,483.278,228.734,468.88,213.195,463.436z"/>
<path style="fill:#ff2222" d="M309.021,739.823c22.039,0,39.979-17.828,39.979-39.844v-39.863c0-22.016-17.94-39.863-39.979-39.863
	c-21.993,0-40.021,17.847-40.021,39.863v39.863C269,721.995,287.027,739.823,309.021,739.823z"/>
<path style="fill:#ff2222" d="M366.998,580.409c22.039,0,40.002-17.851,40.002-39.863V500.68c0-22.016-17.964-39.863-40.002-39.863
	c-22.034,0-39.998,17.847-39.998,39.863v39.867C327,562.558,344.963,580.409,366.998,580.409z"/>
<path style="fill:#ff2222" d="M460,739.823c21.993,0,40-17.828,40-39.844v-39.863c0-22.016-18.007-39.863-40-39.863c-22.039,0-40,17.847-40,39.863v39.863
	C420,721.995,437.961,739.823,460,739.823z"/>
<path style="fill:#ff2222" d="M527.002,580.409c21.993,0,39.998-17.851,39.998-39.863V500.68c0-22.016-18.005-39.863-39.998-39.863
	c-22.039,0-40.002,17.847-40.002,39.863v39.867C487,562.558,504.963,580.409,527.002,580.409z"/>
<path style="fill:#ff2222" d="M567,699.979c0,22.016,17.986,39.844,39.979,39.844S647,721.995,647,699.979v-39.863c0-22.016-18.027-39.863-40.021-39.863
	S567,638.101,567,660.117V699.979z"/>
<path style="fill:#ff2222" d="M678.525,580.409c21.993,0,39.475-17.851,39.475-39.863V500.68c0-22.016-17.481-39.863-39.475-39.863
	S639,478.664,639,500.68v39.867C639,562.558,656.532,580.409,678.525,580.409z"/>
<path style="fill:#ff2222" d="M512.002,769.334c-22.039,0-40.002,17.851-40.002,39.867v39.863c0,21.992,17.963,39.844,40.002,39.844
	c21.993,0,39.998-17.852,39.998-39.844v-39.863C552,787.186,533.995,769.334,512.002,769.334z"/>
</svg>
