<?xml version="1.0" encoding="utf-8"?>
<!-- Generator: Adobe Illustrator 17.1.0, SVG Export Plug-In . SVG Version: 6.00 Build 0)  -->
<!DOCTYPE svg PUBLIC "-//W3C//DTD SVG 1.1//EN" "http://www.w3.org/Graphics/SVG/1.1/DTD/svg11.dtd">
<svg version="1.1" id="Capa_1" xmlns="http://www.w3.org/2000/svg" xmlns:xlink="http://www.w3.org/1999/xlink" x="0px" y="0px"
	 width="1000px" height="1000px" viewBox="0 0 1000 1000" enable-background="new 0 0 1000 1000" xml:space="preserve">
<path style="fill:#ffdd20" d="M334.578,343.395c0,100.269-89.953,249.108-102.854,333.054c-4.021,17.208-6.208,35.071-6.208,53.438
	c0,135.397,115.291,245.163,257.484,245.163s257.484-109.766,257.484-245.163c0-18.367-2.188-36.23-6.171-53.448
	c-12.938-83.936-102.893-232.785-102.893-333.044c0-63.252-43.661-116.771-103.855-134.791c0.093-1.715,0.084-3.45,0.003-5.211
	c27.865-2.21,78.916-11.091,113.436-45.61c34.305-34.298,43.292-84.924,45.57-112.905c0.92-11.278-8.489-20.686-19.768-19.766
	c-27.978,2.282-78.598,11.272-112.895,45.569c-20.883,20.886-32.383,47.813-38.701,71.994c-0.747-2.114-1.533-4.213-2.378-6.293
	c-9.067-22.346-20.505-44.785-39.975-59.951c-11.846-9.227-22.386-15.379-36.455-20.842c-7.491-2.908-15.296-4.919-23.245-6.104
	c-19.506-2.907-38.532-3.807-58.214-3.316c-22.326,0.557-40.978,18.218-40.978,40.978c0,21.916,18.64,41.535,40.978,40.978
	c12.931-0.323,25.889-0.431,38.767,0.804c5.964,1.05,11.827,2.494,17.546,4.479c2.709,1.37,5.337,2.873,7.88,4.537
	c2.214,1.99,4.314,4.088,6.296,6.313c3.511,5.161,6.562,10.594,9.236,16.238c5.585,14.846,8.952,30.366,11.487,46.015
	C382.01,222.116,334.578,277.459,334.578,343.395z M580.333,684.257c11.088,9.443,12.421,26.086,2.979,37.174
	c-9.442,11.088-26.086,12.421-37.174,2.979c-4.546-3.872-7.453-8.964-8.649-14.377l-16.981-76.725L580.333,684.257z
	 M385.371,684.257l59.826-50.95l-16.981,76.725c-3.147,14.219-17.227,23.196-31.446,20.048
	c-14.22-3.147-23.195-17.226-20.048-31.446C378.012,692.804,381.148,687.85,385.371,684.257z"/>
</svg>
