<?xml version="1.0" encoding="iso-8859-1"?>
<!-- Generator: Adobe Illustrator 17.0.0, SVG Export Plug-In . SVG Version: 6.00 Build 0)  -->
<!DOCTYPE svg PUBLIC "-//W3C//DTD SVG 1.1//EN" "http://www.w3.org/Graphics/SVG/1.1/DTD/svg11.dtd">
<svg version="1.1" id="Capa_1" xmlns="http://www.w3.org/2000/svg" xmlns:xlink="http://www.w3.org/1999/xlink" x="0px" y="0px"
	 width="64px" height="64px" viewBox="0 0 64 64" style="enable-background:new 0 0 64 64;" xml:space="preserve">
<g>
	<path style="fill:#44ff99" d="M59.958,29.5h-6.59c-1.209-9.846-9.106-17.667-19.034-18.839V3.875c0-1.381-1.12-2.5-2.5-2.5c-1.381,0-2.5,1.119-2.5,2.5
		v6.763c-10.011,1.1-17.993,8.957-19.21,18.861H3.709c-1.381,0-2.5,1.119-2.5,2.5s1.119,2.5,2.5,2.5h6.381
		c1.106,10.028,9.144,18.014,19.244,19.124v6.501c0,1.381,1.119,2.5,2.5,2.5c1.38,0,2.5-1.119,2.5-2.5v-6.523
		C44.35,52.419,52.302,44.47,53.402,34.5h6.556c1.381,0,2.5-1.119,2.5-2.5S61.339,29.5,59.958,29.5z M34.334,48.541v-8.246
		c0-1.381-1.12-2.5-2.5-2.5c-1.381,0-2.5,1.119-2.5,2.5v8.272c-7.333-1.052-13.133-6.803-14.186-14.067h8.391
		c1.381,0,2.5-1.119,2.5-2.5s-1.119-2.5-2.5-2.5h-8.351c1.154-7.141,6.902-12.765,14.146-13.805v8.01c0,1.381,1.119,2.5,2.5,2.5
		c1.38,0,2.5-1.119,2.5-2.5v-7.984c7.161,1.105,12.825,6.695,13.97,13.779h-8.176c-1.381,0-2.5,1.119-2.5,2.5s1.119,2.5,2.5,2.5
		h8.217C47.299,41.707,41.584,47.422,34.334,48.541z"/>
</g>
</svg>
