<?xml version="1.0" encoding="iso-8859-1"?>
<!-- Generator: Adobe Illustrator 18.0.0, SVG Export Plug-In . SVG Version: 6.00 Build 0)  -->
<!DOCTYPE svg PUBLIC "-//W3C//DTD SVG 1.1//EN" "http://www.w3.org/Graphics/SVG/1.1/DTD/svg11.dtd">
<svg version="1.1" id="Capa_1" xmlns="http://www.w3.org/2000/svg" xmlns:xlink="http://www.w3.org/1999/xlink" x="0px" y="0px"
	 viewBox="0 0 21.021 21.021" style="enable-background:new 0 0 21.021 21.021;" xml:space="preserve">
<path style="fill:#ff0000" d="M12.255,10.51l8.404-8.404c0.482-0.482,0.482-1.263,0-1.744c-0.481-0.482-1.262-0.482-1.744,0l-8.404,8.404L2.105,0.362
	c-0.481-0.482-1.263-0.482-1.744,0c-0.481,0.481-0.481,1.262,0,1.744l8.405,8.404l-8.405,8.405c-0.481,0.481-0.481,1.263,0,1.744
	c0.241,0.241,0.557,0.361,0.872,0.361c0.316,0,0.631-0.12,0.872-0.361l8.405-8.405l8.404,8.405c0.241,0.241,0.557,0.361,0.872,0.361
	c0.316,0,0.632-0.12,0.872-0.361c0.482-0.482,0.482-1.263,0-1.744L12.255,10.51z"/>
<g>
</g>
<g>
</g>
<g>
</g>
<g>
</g>
<g>
</g>
<g>
</g>
<g>
</g>
<g>
</g>
<g>
</g>
<g>
</g>
<g>
</g>
<g>
</g>
<g>
</g>
<g>
</g>
<g>
</g>
</svg>
