<?xml version="1.0" encoding="utf-8"?>
<!-- Generator: Adobe Illustrator 17.1.0, SVG Export Plug-In . SVG Version: 6.00 Build 0)  -->
<!DOCTYPE svg PUBLIC "-//W3C//DTD SVG 1.1//EN" "http://www.w3.org/Graphics/SVG/1.1/DTD/svg11.dtd">
<svg version="1.1" id="Capa_1" xmlns="http://www.w3.org/2000/svg" xmlns:xlink="http://www.w3.org/1999/xlink" x="0px" y="0px"
	 width="1000px" height="1000px" viewBox="0 0 1000 1000" enable-background="new 0 0 1000 1000" xml:space="preserve">
<path style="fill:#ffff00" d="M176.271,819.757c163.01,160.413,395.802,199.76,570.266,110.461c10.053,2.216,22.299,4.793,34.764,7.908
	c30.116,7.526,72.564-8.131,106.623-42.189c29.796-29.796,45.508-66.014,43.935-94.777c-0.371-6.782-4.701-28.222-8.946-47.999
	c88.381-174.309,48.818-406.299-111.169-568.876C649.08,24.21,417.231-15.212,242.922,73.169
	c-19.777-4.245-41.163-8.521-47.945-8.892c-28.763-1.573-64.994,14.126-94.791,43.922c-34.059,34.059-49.729,76.493-42.203,106.609
	c3.115,12.464,5.665,24.684,7.881,34.737C-23.435,424.009,16.2,657.089,176.271,819.757z M565.376,707.765
	c18.231-18.231,48.658-18.231,66.889,0c18.231,18.231,18.231,48.658,0,66.889c-18.231,18.231-48.658,18.231-66.889,0
	C547.146,756.423,547.146,725.997,565.376,707.765z M491.799,821.476c18.231-18.231,48.658-18.231,66.889,0
	c18.231,18.231,18.231,48.658,0,66.889c-18.231,18.231-48.657,18.231-66.889,0C473.568,870.134,473.568,839.708,491.799,821.476z
	 M373.071,744.554c18.231-18.231,48.658-18.231,66.889,0c18.231,18.231,18.231,48.658,0,66.889
	c-18.231,18.231-48.657,18.231-66.889,0C354.84,793.212,354.84,762.785,373.071,744.554z"/>
</svg>
